<?xml version="1.0" encoding="UTF-8"?>
<svg width="100pt" height="100pt" version="1.1" viewBox="0 0 100 100" xmlns="http://www.w3.org/2000/svg">
 <path d="m65.301 53.898h-11.5v-11.5c0-3.8008 0-3.8008-3.8008-3.8008-3.8984 0-3.8984 0-3.8984 3.8008v11.5h-11.5c-3.8984 0-3.8984 0-3.8008 3.8008-0.10156 3.8008-0.10156 3.8008 3.8008 3.8008h11.5v11.5c0 3.8984 0 3.8984 3.8984 3.8008 3.8008 0 3.8008 0 3.8008-3.8008v-11.5h11.5c3.8008-0.10156 3.8008-0.10156 3.8008-3.8008 0.097657-3.8008 0.097657-3.8008-3.8008-3.8008zm15.5 38.402h-61.5v-76.898h11.5v7.6992h38.5v-7.6992h11.5zm-30.801-88.5c1.8984 0 3.8008 1.8984 3.8008 3.8008 0 1.8984-1.8984 3.8008-3.8008 3.8008-1.8984 0-3.8008-1.8984-3.8008-3.8008 0-1.8008 1.9023-3.8008 3.8008-3.8008zm34.602 3.8984h-23.102v-3.8008c0-3.8008 0-3.8008-3.8008-3.8008h-15.398c-3.8008 0-3.8008 0-3.8008 3.8008v3.8008h-23.102c-3.8008 0-3.8008 0-3.8008 3.8008v84.602c0 3.8008 0 3.8008 3.8008 3.8008h69.199c3.8008 0 3.8008 0 3.8008-3.8008v-84.602c0.10156-3.8008 0.10156-3.8008-3.7969-3.8008z"/>
</svg>
